<mxfile host="app.diagrams.net" modified="2022-09-19T22:16:51.407Z" agent="5.0 (X11; Linux x86_64) AppleWebKit/537.36 (KHTML, like Gecko) Chrome/105.0.0.0 Safari/537.36" etag="TLRXvNMZOsvdvnJnJbb9" version="20.3.2" type="github">
  <diagram id="jMb0sWs-dPXCb36GU04s" name="Page-1">
    <mxGraphModel dx="2164" dy="1619" grid="1" gridSize="10" guides="1" tooltips="1" connect="1" arrows="1" fold="1" page="1" pageScale="1" pageWidth="850" pageHeight="1100" math="0" shadow="0">
      <root>
        <mxCell id="0" />
        <mxCell id="1" parent="0" />
        <mxCell id="vaxQfsfxidUz3d7zGtW_-4" value="" style="whiteSpace=wrap;html=1;aspect=fixed;" vertex="1" parent="1">
          <mxGeometry x="-380" y="13.5" width="340" height="340" as="geometry" />
        </mxCell>
        <mxCell id="vaxQfsfxidUz3d7zGtW_-24" style="edgeStyle=orthogonalEdgeStyle;rounded=0;orthogonalLoop=1;jettySize=auto;html=1;exitX=0.835;exitY=0.5;exitDx=0;exitDy=0;exitPerimeter=0;fontSize=17;endArrow=none;endFill=0;" edge="1" parent="1" source="vaxQfsfxidUz3d7zGtW_-1" target="vaxQfsfxidUz3d7zGtW_-23">
          <mxGeometry relative="1" as="geometry" />
        </mxCell>
        <mxCell id="vaxQfsfxidUz3d7zGtW_-1" value="ELB&lt;br style=&quot;font-size: 19px;&quot;&gt;3.221.84.73" style="outlineConnect=0;dashed=0;verticalLabelPosition=top;verticalAlign=bottom;align=left;html=1;shape=mxgraph.aws3.elastic_load_balancing;fillColor=#F58534;gradientColor=none;labelPosition=right;fontSize=19;" vertex="1" parent="1">
          <mxGeometry x="-70" y="133.5" width="60" height="66.5" as="geometry" />
        </mxCell>
        <mxCell id="vaxQfsfxidUz3d7zGtW_-2" value="EC2&lt;br style=&quot;font-size: 18px;&quot;&gt;172.16.10.122/25&lt;br style=&quot;font-size: 18px;&quot;&gt;lo:&amp;nbsp;172.31.255.254/32" style="outlineConnect=0;dashed=0;verticalLabelPosition=bottom;verticalAlign=top;align=center;html=1;shape=mxgraph.aws3.ec2;fillColor=#F58534;gradientColor=none;fontSize=18;" vertex="1" parent="1">
          <mxGeometry x="-320" y="137" width="60" height="63" as="geometry" />
        </mxCell>
        <mxCell id="vaxQfsfxidUz3d7zGtW_-6" style="edgeStyle=orthogonalEdgeStyle;rounded=0;orthogonalLoop=1;jettySize=auto;html=1;exitX=1;exitY=0.5;exitDx=0;exitDy=0;entryX=-0.025;entryY=0.6;entryDx=0;entryDy=0;entryPerimeter=0;endArrow=none;endFill=0;" edge="1" parent="1" source="vaxQfsfxidUz3d7zGtW_-3" target="vaxQfsfxidUz3d7zGtW_-5">
          <mxGeometry relative="1" as="geometry" />
        </mxCell>
        <mxCell id="vaxQfsfxidUz3d7zGtW_-25" style="edgeStyle=orthogonalEdgeStyle;rounded=0;orthogonalLoop=1;jettySize=auto;html=1;exitX=0;exitY=0.5;exitDx=0;exitDy=0;fontSize=17;endArrow=none;endFill=0;" edge="1" parent="1" source="vaxQfsfxidUz3d7zGtW_-3" target="vaxQfsfxidUz3d7zGtW_-23">
          <mxGeometry relative="1" as="geometry" />
        </mxCell>
        <mxCell id="vaxQfsfxidUz3d7zGtW_-3" value="CM-Bridge" style="image;html=1;image=img/lib/clip_art/networking/Modem_128x128.png" vertex="1" parent="1">
          <mxGeometry x="540" y="120" width="80" height="80" as="geometry" />
        </mxCell>
        <mxCell id="vaxQfsfxidUz3d7zGtW_-10" style="edgeStyle=orthogonalEdgeStyle;rounded=0;orthogonalLoop=1;jettySize=auto;html=1;exitX=0.986;exitY=0.686;exitDx=0;exitDy=0;entryX=0;entryY=0.5;entryDx=0;entryDy=0;endArrow=none;endFill=0;exitPerimeter=0;" edge="1" parent="1" source="vaxQfsfxidUz3d7zGtW_-5" target="vaxQfsfxidUz3d7zGtW_-9">
          <mxGeometry relative="1" as="geometry" />
        </mxCell>
        <mxCell id="vaxQfsfxidUz3d7zGtW_-5" value="" style="image;html=1;image=img/lib/clip_art/networking/Wireless_Router_N_128x128.png;labelPosition=right;verticalLabelPosition=middle;align=left;verticalAlign=middle;" vertex="1" parent="1">
          <mxGeometry x="930" y="130" width="80" height="80" as="geometry" />
        </mxCell>
        <mxCell id="vaxQfsfxidUz3d7zGtW_-7" value="&lt;span style=&quot;background-color: rgb(255, 255, 255); font-size: 17px;&quot;&gt;IPv4: 67.48.145.250&lt;br style=&quot;font-size: 17px;&quot;&gt;IPv6: 2605:6000:7fc0:2f:1899:cf18:743c:761e&lt;br style=&quot;font-size: 17px;&quot;&gt;&lt;/span&gt;" style="text;html=1;strokeColor=none;fillColor=none;align=center;verticalAlign=middle;whiteSpace=wrap;rounded=0;fontSize=17;" vertex="1" parent="1">
          <mxGeometry x="390" y="70" width="350" height="30" as="geometry" />
        </mxCell>
        <mxCell id="vaxQfsfxidUz3d7zGtW_-8" value="&lt;span style=&quot;background-color: rgb(255, 255, 255); font-size: 19px;&quot;&gt;LAN-1&lt;br style=&quot;font-size: 19px;&quot;&gt;192.168.100.0/24&lt;/span&gt;" style="text;html=1;strokeColor=none;fillColor=none;align=center;verticalAlign=middle;whiteSpace=wrap;rounded=0;fontSize=19;" vertex="1" parent="1">
          <mxGeometry x="1130" y="130" width="90" height="30" as="geometry" />
        </mxCell>
        <mxCell id="vaxQfsfxidUz3d7zGtW_-15" style="edgeStyle=orthogonalEdgeStyle;rounded=0;orthogonalLoop=1;jettySize=auto;html=1;exitX=1;exitY=0.5;exitDx=0;exitDy=0;entryX=0;entryY=0.5;entryDx=0;entryDy=0;endArrow=none;endFill=0;" edge="1" parent="1" source="vaxQfsfxidUz3d7zGtW_-9" target="vaxQfsfxidUz3d7zGtW_-20">
          <mxGeometry relative="1" as="geometry">
            <mxPoint x="880" y="910" as="targetPoint" />
          </mxGeometry>
        </mxCell>
        <mxCell id="vaxQfsfxidUz3d7zGtW_-9" value="" style="shape=image;html=1;verticalAlign=top;verticalLabelPosition=bottom;labelBackgroundColor=#ffffff;imageAspect=0;aspect=fixed;image=https://cdn4.iconfinder.com/data/icons/internet-networking-and-communication-glyph-24/24/Internet_device_wifi_modem_wifi_router_wifi_signals_wireless_internet-128.png" vertex="1" parent="1">
          <mxGeometry x="1350" y="123.25" width="100" height="100" as="geometry" />
        </mxCell>
        <mxCell id="vaxQfsfxidUz3d7zGtW_-12" value="&lt;span style=&quot;background-color: rgb(255, 255, 255); font-size: 17px;&quot;&gt;GW: 192.168.100.1&lt;/span&gt;" style="text;html=1;strokeColor=none;fillColor=none;align=center;verticalAlign=middle;whiteSpace=wrap;rounded=0;fontSize=17;" vertex="1" parent="1">
          <mxGeometry x="915" y="218.5" width="110" height="30" as="geometry" />
        </mxCell>
        <mxCell id="vaxQfsfxidUz3d7zGtW_-13" value="&lt;span style=&quot;background-color: rgb(255, 255, 255); font-size: 19px;&quot;&gt;IP: 192.168.106.154&lt;/span&gt;" style="text;html=1;strokeColor=none;fillColor=none;align=center;verticalAlign=middle;whiteSpace=wrap;rounded=0;fontSize=19;" vertex="1" parent="1">
          <mxGeometry x="1200" y="200" width="180" height="30" as="geometry" />
        </mxCell>
        <mxCell id="vaxQfsfxidUz3d7zGtW_-16" value="&lt;span style=&quot;background-color: rgb(255, 255, 255);&quot;&gt;LAN-2&lt;br&gt;192.168.88.0/24&lt;/span&gt;" style="text;html=1;strokeColor=none;fillColor=none;align=center;verticalAlign=middle;whiteSpace=wrap;rounded=0;" vertex="1" parent="1">
          <mxGeometry x="1580" y="118.5" width="90" height="30" as="geometry" />
        </mxCell>
        <mxCell id="vaxQfsfxidUz3d7zGtW_-17" value="&lt;span style=&quot;background-color: rgb(255, 255, 255); font-size: 17px;&quot;&gt;GW: 192.168.88.1&lt;/span&gt;" style="text;html=1;strokeColor=none;fillColor=none;align=center;verticalAlign=middle;whiteSpace=wrap;rounded=0;fontSize=17;" vertex="1" parent="1">
          <mxGeometry x="1450" y="200" width="90" height="30" as="geometry" />
        </mxCell>
        <mxCell id="vaxQfsfxidUz3d7zGtW_-18" value="&lt;span style=&quot;background-color: rgb(255, 255, 255); font-size: 17px;&quot;&gt;PC: 192.168.88.254&lt;/span&gt;" style="text;html=1;strokeColor=none;fillColor=none;align=center;verticalAlign=middle;whiteSpace=wrap;rounded=0;fontSize=17;" vertex="1" parent="1">
          <mxGeometry x="1710" y="218.5" width="90" height="30" as="geometry" />
        </mxCell>
        <mxCell id="vaxQfsfxidUz3d7zGtW_-20" value="" style="shape=image;html=1;verticalAlign=top;verticalLabelPosition=bottom;labelBackgroundColor=#ffffff;imageAspect=0;aspect=fixed;image=https://cdn0.iconfinder.com/data/icons/icons-unleashed-vol1/128/-desktop.png" vertex="1" parent="1">
          <mxGeometry x="1720" y="148.5" width="70" height="70" as="geometry" />
        </mxCell>
        <mxCell id="vaxQfsfxidUz3d7zGtW_-22" value="MikroTik" style="text;html=1;strokeColor=none;fillColor=none;align=center;verticalAlign=middle;whiteSpace=wrap;rounded=0;fontStyle=1;fontSize=20;" vertex="1" parent="1">
          <mxGeometry x="1335" y="110" width="130" height="30" as="geometry" />
        </mxCell>
        <mxCell id="vaxQfsfxidUz3d7zGtW_-23" value="" style="aspect=fixed;perimeter=ellipsePerimeter;html=1;align=center;shadow=0;dashed=0;spacingTop=3;image;image=img/lib/active_directory/internet_globe.svg;fontSize=17;" vertex="1" parent="1">
          <mxGeometry x="150" y="-11.5" width="160" height="160" as="geometry" />
        </mxCell>
        <mxCell id="vaxQfsfxidUz3d7zGtW_-27" value="" style="whiteSpace=wrap;html=1;aspect=fixed;" vertex="1" parent="1">
          <mxGeometry x="-380" y="570" width="340" height="340" as="geometry" />
        </mxCell>
        <mxCell id="vaxQfsfxidUz3d7zGtW_-28" style="edgeStyle=orthogonalEdgeStyle;rounded=0;orthogonalLoop=1;jettySize=auto;html=1;exitX=0.835;exitY=0.5;exitDx=0;exitDy=0;exitPerimeter=0;fontSize=17;endArrow=none;endFill=0;" edge="1" parent="1" source="vaxQfsfxidUz3d7zGtW_-29" target="vaxQfsfxidUz3d7zGtW_-47">
          <mxGeometry relative="1" as="geometry" />
        </mxCell>
        <mxCell id="vaxQfsfxidUz3d7zGtW_-29" value="ELB&lt;br style=&quot;font-size: 19px;&quot;&gt;3.221.84.73" style="outlineConnect=0;dashed=0;verticalLabelPosition=top;verticalAlign=bottom;align=left;html=1;shape=mxgraph.aws3.elastic_load_balancing;fillColor=#F58534;gradientColor=none;labelPosition=right;fontSize=19;" vertex="1" parent="1">
          <mxGeometry x="-70" y="690" width="60" height="66.5" as="geometry" />
        </mxCell>
        <mxCell id="vaxQfsfxidUz3d7zGtW_-30" value="EC2&lt;br style=&quot;font-size: 18px;&quot;&gt;172.16.10.122/25&lt;br style=&quot;font-size: 18px;&quot;&gt;lo:&amp;nbsp;172.31.255.254/32" style="outlineConnect=0;dashed=0;verticalLabelPosition=bottom;verticalAlign=top;align=center;html=1;shape=mxgraph.aws3.ec2;fillColor=#F58534;gradientColor=none;fontSize=18;" vertex="1" parent="1">
          <mxGeometry x="-320" y="693.5" width="60" height="63" as="geometry" />
        </mxCell>
        <mxCell id="vaxQfsfxidUz3d7zGtW_-31" style="edgeStyle=orthogonalEdgeStyle;rounded=0;orthogonalLoop=1;jettySize=auto;html=1;exitX=1;exitY=0.5;exitDx=0;exitDy=0;entryX=-0.025;entryY=0.6;entryDx=0;entryDy=0;entryPerimeter=0;endArrow=none;endFill=0;" edge="1" parent="1" source="vaxQfsfxidUz3d7zGtW_-33">
          <mxGeometry relative="1" as="geometry">
            <mxPoint x="928" y="734.5" as="targetPoint" />
          </mxGeometry>
        </mxCell>
        <mxCell id="vaxQfsfxidUz3d7zGtW_-32" style="edgeStyle=orthogonalEdgeStyle;rounded=0;orthogonalLoop=1;jettySize=auto;html=1;exitX=0;exitY=0.5;exitDx=0;exitDy=0;fontSize=17;endArrow=none;endFill=0;" edge="1" parent="1" source="vaxQfsfxidUz3d7zGtW_-33" target="vaxQfsfxidUz3d7zGtW_-47">
          <mxGeometry relative="1" as="geometry" />
        </mxCell>
        <mxCell id="vaxQfsfxidUz3d7zGtW_-33" value="CM-Bridge" style="image;html=1;image=img/lib/clip_art/networking/Modem_128x128.png" vertex="1" parent="1">
          <mxGeometry x="540" y="676.5" width="80" height="80" as="geometry" />
        </mxCell>
        <mxCell id="vaxQfsfxidUz3d7zGtW_-36" value="&lt;span style=&quot;background-color: rgb(255, 255, 255); font-size: 17px;&quot;&gt;IPv4: 67.48.145.249&lt;br style=&quot;font-size: 17px;&quot;&gt;IPv6: 2605:6000:7fc0:2f:1899:cf18:743c:761e&lt;br style=&quot;font-size: 17px;&quot;&gt;&lt;/span&gt;" style="text;html=1;strokeColor=none;fillColor=none;align=center;verticalAlign=middle;whiteSpace=wrap;rounded=0;fontSize=17;" vertex="1" parent="1">
          <mxGeometry x="390" y="626.5" width="350" height="30" as="geometry" />
        </mxCell>
        <mxCell id="vaxQfsfxidUz3d7zGtW_-38" style="edgeStyle=orthogonalEdgeStyle;rounded=0;orthogonalLoop=1;jettySize=auto;html=1;exitX=1;exitY=0.5;exitDx=0;exitDy=0;entryX=0;entryY=0.5;entryDx=0;entryDy=0;endArrow=none;endFill=0;" edge="1" parent="1" source="vaxQfsfxidUz3d7zGtW_-39" target="vaxQfsfxidUz3d7zGtW_-45">
          <mxGeometry relative="1" as="geometry">
            <mxPoint x="880" y="1466.5" as="targetPoint" />
          </mxGeometry>
        </mxCell>
        <mxCell id="vaxQfsfxidUz3d7zGtW_-39" value="" style="shape=image;html=1;verticalAlign=top;verticalLabelPosition=bottom;labelBackgroundColor=#ffffff;imageAspect=0;aspect=fixed;image=https://cdn4.iconfinder.com/data/icons/internet-networking-and-communication-glyph-24/24/Internet_device_wifi_modem_wifi_router_wifi_signals_wireless_internet-128.png" vertex="1" parent="1">
          <mxGeometry x="915" y="676.5" width="100" height="100" as="geometry" />
        </mxCell>
        <mxCell id="vaxQfsfxidUz3d7zGtW_-42" value="&lt;span style=&quot;background-color: rgb(255, 255, 255);&quot;&gt;LAN-2&lt;br&gt;192.168.88.0/24&lt;/span&gt;" style="text;html=1;strokeColor=none;fillColor=none;align=center;verticalAlign=middle;whiteSpace=wrap;rounded=0;" vertex="1" parent="1">
          <mxGeometry x="1120" y="690" width="90" height="30" as="geometry" />
        </mxCell>
        <mxCell id="vaxQfsfxidUz3d7zGtW_-43" value="&lt;span style=&quot;background-color: rgb(255, 255, 255); font-size: 17px;&quot;&gt;GW: 192.168.88.1&lt;/span&gt;" style="text;html=1;strokeColor=none;fillColor=none;align=center;verticalAlign=middle;whiteSpace=wrap;rounded=0;fontSize=17;" vertex="1" parent="1">
          <mxGeometry x="1010" y="746.5" width="90" height="30" as="geometry" />
        </mxCell>
        <mxCell id="vaxQfsfxidUz3d7zGtW_-44" value="&lt;span style=&quot;background-color: rgb(255, 255, 255); font-size: 17px;&quot;&gt;PC: 192.168.88.254&lt;/span&gt;" style="text;html=1;strokeColor=none;fillColor=none;align=center;verticalAlign=middle;whiteSpace=wrap;rounded=0;fontSize=17;" vertex="1" parent="1">
          <mxGeometry x="1335" y="776.5" width="90" height="30" as="geometry" />
        </mxCell>
        <mxCell id="vaxQfsfxidUz3d7zGtW_-45" value="" style="shape=image;html=1;verticalAlign=top;verticalLabelPosition=bottom;labelBackgroundColor=#ffffff;imageAspect=0;aspect=fixed;image=https://cdn0.iconfinder.com/data/icons/icons-unleashed-vol1/128/-desktop.png" vertex="1" parent="1">
          <mxGeometry x="1275" y="720" width="70" height="70" as="geometry" />
        </mxCell>
        <mxCell id="vaxQfsfxidUz3d7zGtW_-46" value="MikroTik" style="text;html=1;strokeColor=none;fillColor=none;align=center;verticalAlign=middle;whiteSpace=wrap;rounded=0;fontStyle=1;fontSize=20;" vertex="1" parent="1">
          <mxGeometry x="905" y="663.5" width="130" height="30" as="geometry" />
        </mxCell>
        <mxCell id="vaxQfsfxidUz3d7zGtW_-47" value="" style="aspect=fixed;perimeter=ellipsePerimeter;html=1;align=center;shadow=0;dashed=0;spacingTop=3;image;image=img/lib/active_directory/internet_globe.svg;fontSize=17;" vertex="1" parent="1">
          <mxGeometry x="135" y="510" width="190" height="190" as="geometry" />
        </mxCell>
        <mxCell id="vaxQfsfxidUz3d7zGtW_-48" value="Router-1" style="text;html=1;strokeColor=none;fillColor=none;align=center;verticalAlign=middle;whiteSpace=wrap;rounded=0;fontStyle=1;fontSize=20;" vertex="1" parent="1">
          <mxGeometry x="890" y="93.25" width="130" height="30" as="geometry" />
        </mxCell>
      </root>
    </mxGraphModel>
  </diagram>
</mxfile>
